<svg height="288" stroke-linejoin="round" viewBox="0 0 432 288" width="432" xmlns="http://www.w3.org/2000/svg" xmlns:xlink="http://www.w3.org/1999/xlink"><defs><path id="b" d="M0 0v3.5" stroke="#000" stroke-linejoin="round" stroke-width=".8"/><path id="c" d="M31.781 66.406q-7.61 0-11.453-7.5Q16.5 51.422 16.5 36.375q0-14.984 3.828-22.484 3.844-7.5 11.453-7.5 7.672 0 11.5 7.5 3.844 7.5 3.844 22.484 0 15.047-3.844 22.531-3.828 7.5-11.5 7.5zm0 7.813q12.266 0 18.735-9.703 6.468-9.688 6.468-28.141 0-18.406-6.468-28.11-6.47-9.687-18.735-9.687-12.25 0-18.718 9.688-6.47 9.703-6.47 28.109 0 18.453 6.47 28.14Q19.53 74.22 31.78 74.22z" stroke-linejoin="round"/><path id="d" d="M19.188 8.297h34.421V0H7.33v8.297q5.609 5.812 15.296 15.594 9.703 9.797 12.188 12.64 4.734 5.313 6.609 9 1.89 3.688 1.89 7.25 0 5.813-4.078 9.469-4.078 3.672-10.625 3.672-4.64 0-9.797-1.61-5.14-1.609-11-4.89v9.969Q13.767 71.78 18.938 73q5.188 1.219 9.485 1.219 11.328 0 18.062-5.672 6.735-5.656 6.735-15.125 0-4.5-1.688-8.531-1.672-4.016-6.125-9.485-1.218-1.422-7.765-8.187-6.532-6.766-18.453-18.922z" stroke-linejoin="round"/><path id="e" d="M12.406 8.297h16.11v55.625l-17.532-3.516v8.985l17.438 3.515h9.86V8.296H54.39V0H12.406z" stroke-linejoin="round"/><path id="f" d="M0 0h-3.5" stroke="#000" stroke-linejoin="round" stroke-width=".8"/><path id="g" d="M10.688 12.406H21V0H10.687z" stroke-linejoin="round"/><path id="h" d="M10.797 72.906h38.719v-8.312H19.828v-17.86q2.14.735 4.281 1.094 2.157.36 4.313.36 12.203 0 19.328-6.688 7.14-6.688 7.14-18.11 0-11.765-7.328-18.296-7.328-6.516-20.656-6.516-4.593 0-9.36.781-4.75.782-9.827 2.344v9.922q4.39-2.39 9.078-3.563 4.687-1.171 9.906-1.171 8.453 0 13.375 4.437 4.938 4.438 4.938 12.063 0 7.609-4.938 12.047-4.922 4.453-13.375 4.453-3.953 0-7.89-.875-3.922-.875-8.016-2.735z" stroke-linejoin="round"/><clipPath id="a" stroke-linejoin="round"><path d="M54 34.56h334.8V252H54z"/></clipPath></defs><path d="M0 288h432V0H0z" fill="#fff"/><path d="M54 252h334.8V34.56H54z" fill="#fff"/><path clip-path="url(#a)" d="M69.218 252h22.546v-.822H69.218zM97.4 252h22.545v-8.218H97.4zM125.582 252h22.545v-36.98h-22.545zM153.764 252h22.545v-98.612h-22.545zM181.945 252h22.546V79.429h-22.546zM210.127 252h22.546V44.914h-22.546zM238.31 252h22.545V79.429h-22.546zM266.49 252h22.546v-98.612h-22.545zM294.673 252h22.545v-36.98h-22.545zM322.855 252H345.4v-8.218h-22.545zM351.036 252h22.546v-.822h-22.546z" fill="#1f77b4"/><use stroke="#000" stroke-width=".8" x="80.491" xlink:href="#b" y="252"/><use transform="matrix(.1 0 0 -.1 77.31 266.598)" xlink:href="#c"/><use stroke="#000" stroke-width=".8" x="136.855" xlink:href="#b" y="252"/><use transform="matrix(.1 0 0 -.1 133.673 266.598)" xlink:href="#d"/><use stroke="#000" stroke-width=".8" x="193.218" xlink:href="#b" y="252"/><path d="m193.817 260.167-2.491 3.892h2.49zm-.26-.86h1.24v4.752h1.041v.82h-1.04v1.72h-.981v-1.72h-3.291v-.95z"/><g><use stroke="#000" stroke-width=".8" x="249.582" xlink:href="#b" y="252"/><path d="M249.702 262.56q-.664 0-1.053.456-.387.453-.387 1.243 0 .786.387 1.244.39.456 1.053.456.664 0 1.052-.456.387-.458.387-1.244 0-.79-.387-1.243-.388-.455-1.052-.455zm1.958-3.091v.898q-.372-.175-.75-.267-.378-.094-.75-.094-.977 0-1.492.66-.514.659-.588 1.992.288-.425.722-.652.436-.226.958-.226 1.098 0 1.736.667.637.665.637 1.812 0 1.124-.664 1.803-.664.679-1.767.679-1.265 0-1.934-.97t-.669-2.81q0-1.728.82-2.756.82-1.028 2.202-1.028.372 0 .75.073t.789.219z"/></g><g><use stroke="#000" stroke-width=".8" x="305.945" xlink:href="#b" y="252"/><path d="M305.942 263.136q-.703 0-1.106.376-.401.377-.401 1.035 0 .66.401 1.036.403.376 1.106.376.703 0 1.108-.378.406-.38.406-1.034 0-.658-.403-1.035-.401-.376-1.11-.376zm-.986-.419q-.634-.156-.989-.59-.353-.436-.353-1.061 0-.874.622-1.382.624-.507 1.706-.507 1.09 0 1.71.507.62.508.62 1.382 0 .625-.355 1.06-.353.435-.982.591.712.166 1.109.65.398.483.398 1.18 0 1.06-.647 1.628-.646.566-1.853.566-1.204 0-1.853-.566-.647-.567-.647-1.628 0-.697.4-1.18.402-.484 1.114-.65zm-.36-1.558q0 .566.353.883.354.317.993.317.636 0 .994-.317.36-.317.36-.883 0-.567-.36-.884-.358-.317-.994-.317-.639 0-.993.317t-.354.884z"/></g><g><use stroke="#000" stroke-width=".8" x="362.309" xlink:href="#b" y="252"/><g transform="matrix(.1 0 0 -.1 355.947 266.598)"><use xlink:href="#e"/><use x="63.623" xlink:href="#c"/></g></g><g><use stroke="#000" stroke-width=".8" x="54" xlink:href="#f" y="252"/><g transform="matrix(.1 0 0 -.1 24.734 255.8)"><use xlink:href="#c"/><use x="63.623" xlink:href="#g"/><use x="95.41" xlink:href="#c"/><use x="159.033" xlink:href="#c"/></g><use stroke="#000" stroke-width=".8" x="54" xlink:href="#f" y="209.925"/><g transform="matrix(.1 0 0 -.1 24.734 213.725)"><use xlink:href="#c"/><use x="63.623" xlink:href="#g"/><use x="95.41" xlink:href="#c"/><use x="159.033" xlink:href="#h"/></g><use stroke="#000" stroke-width=".8" x="54" xlink:href="#f" y="167.851"/><g transform="matrix(.1 0 0 -.1 24.734 171.65)"><use xlink:href="#c"/><use x="63.623" xlink:href="#g"/><use x="95.41" xlink:href="#e"/><use x="159.033" xlink:href="#c"/></g><g><use stroke="#000" stroke-width=".8" x="54" xlink:href="#f" y="125.776"/><g transform="matrix(.1 0 0 -.1 24.734 129.576)"><use xlink:href="#c"/><use x="63.623" xlink:href="#g"/><use x="95.41" xlink:href="#e"/><use x="159.033" xlink:href="#h"/></g></g><g><use stroke="#000" stroke-width=".8" x="54" xlink:href="#f" y="83.702"/><g transform="matrix(.1 0 0 -.1 24.734 87.501)"><use xlink:href="#c"/><use x="63.623" xlink:href="#g"/><use x="95.41" xlink:href="#d"/><use x="159.033" xlink:href="#c"/></g></g><g><use stroke="#000" stroke-width=".8" x="54" xlink:href="#f" y="41.627"/><g transform="matrix(.1 0 0 -.1 24.734 45.426)"><use xlink:href="#c"/><use x="63.623" xlink:href="#g"/><use x="95.41" xlink:href="#d"/><use x="159.033" xlink:href="#h"/></g></g></g><path d="M54 252V34.56M388.8 252V34.56M54 252h334.8M54 34.56h334.8" fill="#fff" stroke="#000" stroke-linecap="square" stroke-linejoin="miter" stroke-width=".8"/></svg>
