<svg height="324" viewBox="0 0 525 324.475" width="525" xmlns="http://www.w3.org/2000/svg" xmlns:xlink="http://www.w3.org/1999/xlink"><defs><style>*{stroke-linecap:butt;stroke-linejoin:round}</style></defs><g id="figure_1"><path d="M0 324.475h525V0H0z" style="fill:#fff" id="patch_1"/><g id="axes_1"><path d="M64.998 286.655H509.25V9.735H64.998z" style="fill:#fff" id="patch_2"/><g id="PathCollection_1"><defs><path d="M0 3a3 3 0 1 0 0-6 3 3 0 0 0 0 6z" id="m15669dd18d" style="stroke:#1f77b4;stroke-opacity:.8"/></defs><g clip-path="url(#p2ec7b72c7b)"><use style="fill:#1f77b4;fill-opacity:.8;stroke:#1f77b4;stroke-opacity:.8" x="311.356" xlink:href="#m15669dd18d" y="127.941"/><use style="fill:#1f77b4;fill-opacity:.8;stroke:#1f77b4;stroke-opacity:.8" x="480.979" xlink:href="#m15669dd18d" y="264.79"/><use style="fill:#1f77b4;fill-opacity:.8;stroke:#1f77b4;stroke-opacity:.8" x="384.052" xlink:href="#m15669dd18d" y="160.414"/><use style="fill:#1f77b4;fill-opacity:.8;stroke:#1f77b4;stroke-opacity:.8" x="311.356" xlink:href="#m15669dd18d" y="190.567"/><use style="fill:#1f77b4;fill-opacity:.8;stroke:#1f77b4;stroke-opacity:.8" x="295.201" xlink:href="#m15669dd18d" y="114.024"/><use style="fill:#1f77b4;fill-opacity:.8;stroke:#1f77b4;stroke-opacity:.8" x="355.781" xlink:href="#m15669dd18d" y="123.302"/><use style="fill:#1f77b4;fill-opacity:.8;stroke:#1f77b4;stroke-opacity:.8" x="388.09" xlink:href="#m15669dd18d" y="167.372"/><use style="fill:#1f77b4;fill-opacity:.8;stroke:#1f77b4;stroke-opacity:.8" x="351.742" xlink:href="#m15669dd18d" y="155.775"/><use style="fill:#1f77b4;fill-opacity:.8;stroke:#1f77b4;stroke-opacity:.8" x="456.747" xlink:href="#m15669dd18d" y="199.845"/><use style="fill:#1f77b4;fill-opacity:.8;stroke:#1f77b4;stroke-opacity:.8" x="343.665" xlink:href="#m15669dd18d" y="169.692"/><use style="fill:#1f77b4;fill-opacity:.8;stroke:#1f77b4;stroke-opacity:.8" x="416.361" xlink:href="#m15669dd18d" y="195.206"/><use style="fill:#1f77b4;fill-opacity:.8;stroke:#1f77b4;stroke-opacity:.8" x="440.593" xlink:href="#m15669dd18d" y="227.678"/><use style="fill:#1f77b4;fill-opacity:.8;stroke:#1f77b4;stroke-opacity:.8" x="311.356" xlink:href="#m15669dd18d" y="165.053"/><use style="fill:#1f77b4;fill-opacity:.8;stroke:#1f77b4;stroke-opacity:.8" x="392.129" xlink:href="#m15669dd18d" y="197.525"/><use style="fill:#1f77b4;fill-opacity:.8;stroke:#1f77b4;stroke-opacity:.8" x="258.853" xlink:href="#m15669dd18d" y="169.692"/><use style="fill:#1f77b4;fill-opacity:.8;stroke:#1f77b4;stroke-opacity:.8" x="404.245" xlink:href="#m15669dd18d" y="169.692"/><use style="fill:#1f77b4;fill-opacity:.8;stroke:#1f77b4;stroke-opacity:.8" x="400.206" xlink:href="#m15669dd18d" y="199.845"/><use style="fill:#1f77b4;fill-opacity:.8;stroke:#1f77b4;stroke-opacity:.8" x="424.438" xlink:href="#m15669dd18d" y="218.401"/><use style="fill:#1f77b4;fill-opacity:.8;stroke:#1f77b4;stroke-opacity:.8" x="323.472" xlink:href="#m15669dd18d" y="125.621"/><use style="fill:#1f77b4;fill-opacity:.8;stroke:#1f77b4;stroke-opacity:.8" x="315.395" xlink:href="#m15669dd18d" y="148.816"/><use style="fill:#1f77b4;fill-opacity:.8;stroke:#1f77b4;stroke-opacity:.8" x="194.235" xlink:href="#m15669dd18d" y="69.954"/><use style="fill:#1f77b4;fill-opacity:.8;stroke:#1f77b4;stroke-opacity:.8" x="359.82" xlink:href="#m15669dd18d" y="188.247"/><use style="fill:#1f77b4;fill-opacity:.8;stroke:#1f77b4;stroke-opacity:.8" x="392.129" xlink:href="#m15669dd18d" y="183.608"/><use style="fill:#1f77b4;fill-opacity:.8;stroke:#1f77b4;stroke-opacity:.8" x="331.549" xlink:href="#m15669dd18d" y="148.816"/><use style="fill:#1f77b4;fill-opacity:.8;stroke:#1f77b4;stroke-opacity:.8" x="444.632" xlink:href="#m15669dd18d" y="225.359"/><use style="fill:#1f77b4;fill-opacity:.8;stroke:#1f77b4;stroke-opacity:.8" x="359.82" xlink:href="#m15669dd18d" y="225.359"/><use style="fill:#1f77b4;fill-opacity:.8;stroke:#1f77b4;stroke-opacity:.8" x="375.974" xlink:href="#m15669dd18d" y="181.289"/><use style="fill:#1f77b4;fill-opacity:.8;stroke:#1f77b4;stroke-opacity:.8" x="303.279" xlink:href="#m15669dd18d" y="130.26"/><use style="fill:#1f77b4;fill-opacity:.8;stroke:#1f77b4;stroke-opacity:.8" x="460.786" xlink:href="#m15669dd18d" y="274.068"/><use style="fill:#1f77b4;fill-opacity:.8;stroke:#1f77b4;stroke-opacity:.8" x="363.858" xlink:href="#m15669dd18d" y="146.497"/><use style="fill:#1f77b4;fill-opacity:.8;stroke:#1f77b4;stroke-opacity:.8" x="311.356" xlink:href="#m15669dd18d" y="141.858"/><use style="fill:#1f77b4;fill-opacity:.8;stroke:#1f77b4;stroke-opacity:.8" x="400.206" xlink:href="#m15669dd18d" y="218.401"/><use style="fill:#1f77b4;fill-opacity:.8;stroke:#1f77b4;stroke-opacity:.8" x="335.588" xlink:href="#m15669dd18d" y="118.663"/><use style="fill:#1f77b4;fill-opacity:.8;stroke:#1f77b4;stroke-opacity:.8" x="315.395" xlink:href="#m15669dd18d" y="162.733"/><use style="fill:#1f77b4;fill-opacity:.8;stroke:#1f77b4;stroke-opacity:.8" x="359.82" xlink:href="#m15669dd18d" y="211.442"/><use style="fill:#1f77b4;fill-opacity:.8;stroke:#1f77b4;stroke-opacity:.8" x="359.82" xlink:href="#m15669dd18d" y="220.72"/><use style="fill:#1f77b4;fill-opacity:.8;stroke:#1f77b4;stroke-opacity:.8" x="283.085" xlink:href="#m15669dd18d" y="104.746"/><use style="fill:#1f77b4;fill-opacity:.8;stroke:#1f77b4;stroke-opacity:.8" x="327.511" xlink:href="#m15669dd18d" y="165.053"/><use style="fill:#1f77b4;fill-opacity:.8;stroke:#1f77b4;stroke-opacity:.8" x="315.395" xlink:href="#m15669dd18d" y="167.372"/><use style="fill:#1f77b4;fill-opacity:.8;stroke:#1f77b4;stroke-opacity:.8" x="287.124" xlink:href="#m15669dd18d" y="132.58"/><use style="fill:#1f77b4;fill-opacity:.8;stroke:#1f77b4;stroke-opacity:.8" x="363.858" xlink:href="#m15669dd18d" y="153.455"/><use style="fill:#1f77b4;fill-opacity:.8;stroke:#1f77b4;stroke-opacity:.8" x="404.245" xlink:href="#m15669dd18d" y="269.429"/><use style="fill:#1f77b4;fill-opacity:.8;stroke:#1f77b4;stroke-opacity:.8" x="400.206" xlink:href="#m15669dd18d" y="188.247"/><use style="fill:#1f77b4;fill-opacity:.8;stroke:#1f77b4;stroke-opacity:.8" x="408.284" xlink:href="#m15669dd18d" y="225.359"/><use style="fill:#1f77b4;fill-opacity:.8;stroke:#1f77b4;stroke-opacity:.8" x="424.438" xlink:href="#m15669dd18d" y="123.302"/><use style="fill:#1f77b4;fill-opacity:.8;stroke:#1f77b4;stroke-opacity:.8" x="396.168" xlink:href="#m15669dd18d" y="218.401"/><use style="fill:#1f77b4;fill-opacity:.8;stroke:#1f77b4;stroke-opacity:.8" x="420.4" xlink:href="#m15669dd18d" y="188.247"/><use style="fill:#1f77b4;fill-opacity:.8;stroke:#1f77b4;stroke-opacity:.8" x="388.09" xlink:href="#m15669dd18d" y="206.803"/><use style="fill:#1f77b4;fill-opacity:.8;stroke:#1f77b4;stroke-opacity:.8" x="311.356" xlink:href="#m15669dd18d" y="199.845"/><use style="fill:#1f77b4;fill-opacity:.8;stroke:#1f77b4;stroke-opacity:.8" x="279.047" xlink:href="#m15669dd18d" y="123.302"/></g></g><g id="PathCollection_2"><defs><path d="m-3 3 6-6m-6 0 6 6" id="m51b2aa0ee0" style="stroke:#ff7f0e;stroke-opacity:.8;stroke-width:1.5"/></defs><g clip-path="url(#p2ec7b72c7b)"><use style="fill:#ff7f0e;fill-opacity:.8;stroke:#ff7f0e;stroke-opacity:.8;stroke-width:1.5" x="375.974" xlink:href="#m51b2aa0ee0" y="192.886"/><use style="fill:#ff7f0e;fill-opacity:.8;stroke:#ff7f0e;stroke-opacity:.8;stroke-width:1.5" x="460.786" xlink:href="#m51b2aa0ee0" y="206.803"/><use style="fill:#ff7f0e;fill-opacity:.8;stroke:#ff7f0e;stroke-opacity:.8;stroke-width:1.5" x="254.815" xlink:href="#m51b2aa0ee0" y="148.816"/><use style="fill:#ff7f0e;fill-opacity:.8;stroke:#ff7f0e;stroke-opacity:.8;stroke-width:1.5" x="202.312" xlink:href="#m51b2aa0ee0" y="151.136"/><use style="fill:#ff7f0e;fill-opacity:.8;stroke:#ff7f0e;stroke-opacity:.8;stroke-width:1.5" x="315.395" xlink:href="#m51b2aa0ee0" y="199.845"/><use style="fill:#ff7f0e;fill-opacity:.8;stroke:#ff7f0e;stroke-opacity:.8;stroke-width:1.5" x="287.124" xlink:href="#m51b2aa0ee0" y="176.65"/><use style="fill:#ff7f0e;fill-opacity:.8;stroke:#ff7f0e;stroke-opacity:.8;stroke-width:1.5" x="149.81" xlink:href="#m51b2aa0ee0" y="141.858"/><use style="fill:#ff7f0e;fill-opacity:.8;stroke:#ff7f0e;stroke-opacity:.8;stroke-width:1.5" x="275.008" xlink:href="#m51b2aa0ee0" y="176.65"/><use style="fill:#ff7f0e;fill-opacity:.8;stroke:#ff7f0e;stroke-opacity:.8;stroke-width:1.5" x="339.626" xlink:href="#m51b2aa0ee0" y="185.928"/><use style="fill:#ff7f0e;fill-opacity:.8;stroke:#ff7f0e;stroke-opacity:.8;stroke-width:1.5" x="335.588" xlink:href="#m51b2aa0ee0" y="144.177"/><use style="fill:#ff7f0e;fill-opacity:.8;stroke:#ff7f0e;stroke-opacity:.8;stroke-width:1.5" x="295.201" xlink:href="#m51b2aa0ee0" y="172.011"/><use style="fill:#ff7f0e;fill-opacity:.8;stroke:#ff7f0e;stroke-opacity:.8;stroke-width:1.5" x="363.858" xlink:href="#m51b2aa0ee0" y="204.484"/><use style="fill:#ff7f0e;fill-opacity:.8;stroke:#ff7f0e;stroke-opacity:.8;stroke-width:1.5" x="279.047" xlink:href="#m51b2aa0ee0" y="158.094"/><use style="fill:#ff7f0e;fill-opacity:.8;stroke:#ff7f0e;stroke-opacity:.8;stroke-width:1.5" x="303.279" xlink:href="#m51b2aa0ee0" y="134.899"/><use style="fill:#ff7f0e;fill-opacity:.8;stroke:#ff7f0e;stroke-opacity:.8;stroke-width:1.5" x="331.549" xlink:href="#m51b2aa0ee0" y="218.401"/><use style="fill:#ff7f0e;fill-opacity:.8;stroke:#ff7f0e;stroke-opacity:.8;stroke-width:1.5" x="408.284" xlink:href="#m51b2aa0ee0" y="216.081"/><use style="fill:#ff7f0e;fill-opacity:.8;stroke:#ff7f0e;stroke-opacity:.8;stroke-width:1.5" x="174.042" xlink:href="#m51b2aa0ee0" y="139.538"/><use style="fill:#ff7f0e;fill-opacity:.8;stroke:#ff7f0e;stroke-opacity:.8;stroke-width:1.5" x="400.206" xlink:href="#m51b2aa0ee0" y="216.081"/><use style="fill:#ff7f0e;fill-opacity:.8;stroke:#ff7f0e;stroke-opacity:.8;stroke-width:1.5" x="371.936" xlink:href="#m51b2aa0ee0" y="197.525"/><use style="fill:#ff7f0e;fill-opacity:.8;stroke:#ff7f0e;stroke-opacity:.8;stroke-width:1.5" x="234.621" xlink:href="#m51b2aa0ee0" y="153.455"/><use style="fill:#ff7f0e;fill-opacity:.8;stroke:#ff7f0e;stroke-opacity:.8;stroke-width:1.5" x="109.423" xlink:href="#m51b2aa0ee0" y="86.19"/><use style="fill:#ff7f0e;fill-opacity:.8;stroke:#ff7f0e;stroke-opacity:.8;stroke-width:1.5" x="89.23" xlink:href="#m51b2aa0ee0" y="118.663"/><use style="fill:#ff7f0e;fill-opacity:.8;stroke:#ff7f0e;stroke-opacity:.8;stroke-width:1.5" x="436.554" xlink:href="#m51b2aa0ee0" y="223.04"/><use style="fill:#ff7f0e;fill-opacity:.8;stroke:#ff7f0e;stroke-opacity:.8;stroke-width:1.5" x="319.433" xlink:href="#m51b2aa0ee0" y="160.414"/><use style="fill:#ff7f0e;fill-opacity:.8;stroke:#ff7f0e;stroke-opacity:.8;stroke-width:1.5" x="190.196" xlink:href="#m51b2aa0ee0" y="107.066"/><use style="fill:#ff7f0e;fill-opacity:.8;stroke:#ff7f0e;stroke-opacity:.8;stroke-width:1.5" x="311.356" xlink:href="#m51b2aa0ee0" y="172.011"/><use style="fill:#ff7f0e;fill-opacity:.8;stroke:#ff7f0e;stroke-opacity:.8;stroke-width:1.5" x="206.351" xlink:href="#m51b2aa0ee0" y="120.982"/><use style="fill:#ff7f0e;fill-opacity:.8;stroke:#ff7f0e;stroke-opacity:.8;stroke-width:1.5" x="242.699" xlink:href="#m51b2aa0ee0" y="137.219"/><use style="fill:#ff7f0e;fill-opacity:.8;stroke:#ff7f0e;stroke-opacity:.8;stroke-width:1.5" x="198.274" xlink:href="#m51b2aa0ee0" y="148.816"/><use style="fill:#ff7f0e;fill-opacity:.8;stroke:#ff7f0e;stroke-opacity:.8;stroke-width:1.5" x="186.158" xlink:href="#m51b2aa0ee0" y="114.024"/><use style="fill:#ff7f0e;fill-opacity:.8;stroke:#ff7f0e;stroke-opacity:.8;stroke-width:1.5" x="165.964" xlink:href="#m51b2aa0ee0" y="139.538"/><use style="fill:#ff7f0e;fill-opacity:.8;stroke:#ff7f0e;stroke-opacity:.8;stroke-width:1.5" x="206.351" xlink:href="#m51b2aa0ee0" y="139.538"/><use style="fill:#ff7f0e;fill-opacity:.8;stroke:#ff7f0e;stroke-opacity:.8;stroke-width:1.5" x="363.858" xlink:href="#m51b2aa0ee0" y="239.276"/><use style="fill:#ff7f0e;fill-opacity:.8;stroke:#ff7f0e;stroke-opacity:.8;stroke-width:1.5" x="303.279" xlink:href="#m51b2aa0ee0" y="185.928"/><use style="fill:#ff7f0e;fill-opacity:.8;stroke:#ff7f0e;stroke-opacity:.8;stroke-width:1.5" x="327.511" xlink:href="#m51b2aa0ee0" y="146.497"/><use style="fill:#ff7f0e;fill-opacity:.8;stroke:#ff7f0e;stroke-opacity:.8;stroke-width:1.5" x="448.67" xlink:href="#m51b2aa0ee0" y="232.317"/><use style="fill:#ff7f0e;fill-opacity:.8;stroke:#ff7f0e;stroke-opacity:.8;stroke-width:1.5" x="109.423" xlink:href="#m51b2aa0ee0" y="104.746"/><use style="fill:#ff7f0e;fill-opacity:.8;stroke:#ff7f0e;stroke-opacity:.8;stroke-width:1.5" x="149.81" xlink:href="#m51b2aa0ee0" y="114.024"/><use style="fill:#ff7f0e;fill-opacity:.8;stroke:#ff7f0e;stroke-opacity:.8;stroke-width:1.5" x="109.423" xlink:href="#m51b2aa0ee0" y="69.954"/><use style="fill:#ff7f0e;fill-opacity:.8;stroke:#ff7f0e;stroke-opacity:.8;stroke-width:1.5" x="468.863" xlink:href="#m51b2aa0ee0" y="209.123"/><use style="fill:#ff7f0e;fill-opacity:.8;stroke:#ff7f0e;stroke-opacity:.8;stroke-width:1.5" x="291.163" xlink:href="#m51b2aa0ee0" y="146.497"/><use style="fill:#ff7f0e;fill-opacity:.8;stroke:#ff7f0e;stroke-opacity:.8;stroke-width:1.5" x="230.583" xlink:href="#m51b2aa0ee0" y="144.177"/><use style="fill:#ff7f0e;fill-opacity:.8;stroke:#ff7f0e;stroke-opacity:.8;stroke-width:1.5" x="351.742" xlink:href="#m51b2aa0ee0" y="185.928"/><use style="fill:#ff7f0e;fill-opacity:.8;stroke:#ff7f0e;stroke-opacity:.8;stroke-width:1.5" x="230.583" xlink:href="#m51b2aa0ee0" y="176.65"/><use style="fill:#ff7f0e;fill-opacity:.8;stroke:#ff7f0e;stroke-opacity:.8;stroke-width:1.5" x="246.737" xlink:href="#m51b2aa0ee0" y="155.775"/><use style="fill:#ff7f0e;fill-opacity:.8;stroke:#ff7f0e;stroke-opacity:.8;stroke-width:1.5" x="367.897" xlink:href="#m51b2aa0ee0" y="188.247"/><use style="fill:#ff7f0e;fill-opacity:.8;stroke:#ff7f0e;stroke-opacity:.8;stroke-width:1.5" x="234.621" xlink:href="#m51b2aa0ee0" y="137.219"/><use style="fill:#ff7f0e;fill-opacity:.8;stroke:#ff7f0e;stroke-opacity:.8;stroke-width:1.5" x="323.472" xlink:href="#m51b2aa0ee0" y="209.123"/><use style="fill:#ff7f0e;fill-opacity:.8;stroke:#ff7f0e;stroke-opacity:.8;stroke-width:1.5" x="242.699" xlink:href="#m51b2aa0ee0" y="141.858"/><use style="fill:#ff7f0e;fill-opacity:.8;stroke:#ff7f0e;stroke-opacity:.8;stroke-width:1.5" x="178.08" xlink:href="#m51b2aa0ee0" y="125.621"/></g></g><g id="matplotlib.axis_1"><g id="xtick_1"><g id="line2d_1"><defs><path d="M0 0v3.5" id="m7b4582d91f" style="stroke:#000;stroke-width:.8"/></defs><use style="stroke:#000;stroke-width:.8" x="85.191" xlink:href="#m7b4582d91f" y="286.655"/></g><g transform="matrix(.1 0 0 -.1 82.01 301.254)" id="text_1"><defs><path d="M31.781 66.406q-7.61 0-11.453-7.5Q16.5 51.422 16.5 36.375q0-14.984 3.828-22.484 3.844-7.5 11.453-7.5 7.672 0 11.5 7.5 3.844 7.5 3.844 22.484 0 15.047-3.844 22.531-3.828 7.5-11.5 7.5zm0 7.813q12.266 0 18.735-9.703 6.468-9.688 6.468-28.141 0-18.406-6.468-28.11-6.47-9.687-18.735-9.687-12.25 0-18.718 9.688-6.47 9.703-6.47 28.109 0 18.453 6.47 28.14Q19.53 74.22 31.78 74.22z" id="DejaVuSans-48"/></defs><use xlink:href="#DejaVuSans-48"/></g></g><g id="xtick_2"><use style="stroke:#000;stroke-width:.8" x="165.964" xlink:href="#m7b4582d91f" y="286.655" id="line2d_2"/><g transform="matrix(.1 0 0 -.1 162.783 301.254)" id="text_2"><defs><path d="M19.188 8.297h34.421V0H7.33v8.297q5.609 5.812 15.296 15.594 9.703 9.797 12.188 12.64 4.734 5.313 6.609 9 1.89 3.688 1.89 7.25 0 5.813-4.078 9.469-4.078 3.672-10.625 3.672-4.64 0-9.797-1.61-5.14-1.609-11-4.89v9.969Q13.767 71.78 18.938 73q5.188 1.219 9.485 1.219 11.328 0 18.062-5.672 6.735-5.656 6.735-15.125 0-4.5-1.688-8.531-1.672-4.016-6.125-9.485-1.218-1.422-7.765-8.187-6.532-6.766-18.453-18.922z" id="DejaVuSans-50"/></defs><use xlink:href="#DejaVuSans-50"/></g></g><g id="xtick_3"><use style="stroke:#000;stroke-width:.8" x="246.737" xlink:href="#m7b4582d91f" y="286.655" id="line2d_3"/><g transform="matrix(.1 0 0 -.1 243.556 301.254)" id="text_3"><defs><path d="M37.797 64.313 12.89 25.39h24.906zm-2.594 8.593H47.61V25.391h10.407v-8.203H47.609V0h-9.812v17.188H4.89v9.515z" id="DejaVuSans-52"/></defs><use xlink:href="#DejaVuSans-52"/></g></g><g id="xtick_4"><use style="stroke:#000;stroke-width:.8" x="327.511" xlink:href="#m7b4582d91f" y="286.655" id="line2d_4"/><g transform="matrix(.1 0 0 -.1 324.33 301.254)" id="text_4"><defs><path d="M33.016 40.375q-6.641 0-10.532-4.547-3.875-4.531-3.875-12.437 0-7.86 3.875-12.438 3.891-4.562 10.532-4.562 6.64 0 10.515 4.562 3.875 4.578 3.875 12.438 0 7.906-3.875 12.437-3.875 4.547-10.515 4.547zm19.578 30.922v-8.984q-3.719 1.75-7.5 2.671-3.782.938-7.5.938-9.766 0-14.922-6.594-5.14-6.594-5.875-19.922 2.875 4.25 7.219 6.516 4.359 2.266 9.578 2.266 10.984 0 17.36-6.672 6.374-6.657 6.374-18.125 0-11.235-6.64-18.032-6.641-6.78-17.672-6.78-12.657 0-19.344 9.687-6.688 9.703-6.688 28.109 0 17.281 8.204 27.563 8.203 10.28 22.015 10.28 3.719 0 7.5-.734t7.89-2.187z" id="DejaVuSans-54"/></defs><use xlink:href="#DejaVuSans-54"/></g></g><g id="xtick_5"><use style="stroke:#000;stroke-width:.8" x="408.284" xlink:href="#m7b4582d91f" y="286.655" id="line2d_5"/><g transform="matrix(.1 0 0 -.1 405.102 301.254)" id="text_5"><defs><path d="M31.781 34.625q-7.031 0-11.062-3.766-4.016-3.765-4.016-10.343 0-6.594 4.016-10.36Q24.75 6.391 31.78 6.391q7.032 0 11.078 3.78 4.063 3.798 4.063 10.345 0 6.578-4.031 10.343-4.016 3.766-11.11 3.766zm-9.86 4.188q-6.343 1.562-9.89 5.906Q8.5 49.079 8.5 55.329q0 8.733 6.219 13.812 6.234 5.078 17.062 5.078 10.89 0 17.094-5.078 6.203-5.079 6.203-13.813 0-6.25-3.547-10.61-3.531-4.343-9.828-5.906 7.125-1.656 11.094-6.5 3.984-4.828 3.984-11.796 0-10.61-6.468-16.282-6.47-5.656-18.532-5.656-12.047 0-18.531 5.656-6.469 5.672-6.469 16.282 0 6.968 4 11.797 4.016 4.843 11.14 6.5zM18.314 54.39q0-5.657 3.53-8.828 3.548-3.172 9.938-3.172 6.36 0 9.938 3.172 3.593 3.171 3.593 8.828 0 5.672-3.593 8.843-3.578 3.172-9.938 3.172-6.39 0-9.937-3.172-3.532-3.172-3.532-8.843z" id="DejaVuSans-56"/></defs><use xlink:href="#DejaVuSans-56"/></g></g><g id="xtick_6"><use style="stroke:#000;stroke-width:.8" x="489.057" xlink:href="#m7b4582d91f" y="286.655" id="line2d_6"/><g transform="matrix(.1 0 0 -.1 482.694 301.254)" id="text_6"><defs><path d="M12.406 8.297h16.11v55.625l-17.532-3.516v8.985l17.438 3.515h9.86V8.296H54.39V0H12.406z" id="DejaVuSans-49"/></defs><use xlink:href="#DejaVuSans-49"/><use x="63.623" xlink:href="#DejaVuSans-48"/></g></g><g transform="matrix(.1 0 0 -.1 272.33 314.932)" id="text_7"><defs><path d="M44.281 53.078v-8.5q-3.797 1.953-7.906 2.922-4.094.984-8.5.984-6.688 0-10.031-2.047-3.344-2.046-3.344-6.156 0-3.125 2.39-4.906 2.391-1.781 9.626-3.39l3.078-.688q9.562-2.047 13.593-5.781 4.032-3.735 4.032-10.422 0-7.625-6.032-12.078-6.03-4.438-16.578-4.438-4.39 0-9.156.86Q10.688.296 5.422 2v9.281q4.984-2.594 9.812-3.89 4.829-1.282 9.579-1.282 6.343 0 9.75 2.172 3.421 2.172 3.421 6.125 0 3.656-2.468 5.61-2.453 1.953-10.813 3.765l-3.125.735q-8.344 1.75-12.062 5.39-3.704 3.64-3.704 9.985 0 7.718 5.47 11.906Q16.75 56 26.811 56q4.97 0 9.36-.734 4.406-.72 8.11-2.188z" id="DejaVuSans-115"/><path d="M18.313 70.219V54.688h18.5v-6.985h-18.5V18.016q0-6.688 1.828-8.594 1.828-1.906 7.453-1.906h9.218V0h-9.218q-10.407 0-14.36 3.875-3.953 3.89-3.953 14.14v29.688H2.687v6.984h6.594V70.22z" id="DejaVuSans-116"/><path d="M41.11 46.297q-1.516.875-3.297 1.281Q36.03 48 33.89 48q-7.625 0-11.703-4.953-4.079-4.953-4.079-14.234V0H9.08v54.688h9.03v-8.5q2.844 4.984 7.375 7.39Q30.031 56 36.531 56q.922 0 2.047-.125 1.125-.11 2.484-.36z" id="DejaVuSans-114"/><path d="M56.203 29.594v-4.39H14.891q.593-9.282 5.593-14.142 5-4.859 13.938-4.859 5.172 0 10.031 1.266 4.86 1.265 9.656 3.812v-8.5Q49.266.734 44.187-.344 39.11-1.422 33.892-1.422q-13.094 0-20.735 7.61-7.64 7.625-7.64 20.625 0 13.421 7.25 21.296Q20.016 56 32.328 56q11.031 0 17.453-7.11 6.422-7.093 6.422-19.296zm-8.984 2.64q-.094 7.36-4.125 11.75-4.032 4.407-10.672 4.407-7.516 0-12.031-4.25-4.516-4.25-5.203-11.97z" id="DejaVuSans-101"/></defs><use xlink:href="#DejaVuSans-115"/><use x="52.1" xlink:href="#DejaVuSans-116"/><use x="91.309" xlink:href="#DejaVuSans-114"/><use x="130.172" xlink:href="#DejaVuSans-101"/><use x="191.695" xlink:href="#DejaVuSans-115"/><use x="243.795" xlink:href="#DejaVuSans-115"/></g></g><g id="matplotlib.axis_2"><g id="ytick_1"><g id="line2d_7"><defs><path d="M0 0h-3.5" id="m56426dffde" style="stroke:#000;stroke-width:.8"/></defs><use style="stroke:#000;stroke-width:.8" x="64.998" xlink:href="#m56426dffde" y="255.512"/></g><use xlink:href="#DejaVuSans-50" transform="matrix(.1 0 0 -.1 51.635 259.311)" id="text_8"/></g><g id="ytick_2"><use style="stroke:#000;stroke-width:.8" x="64.998" xlink:href="#m56426dffde" y="209.123" id="line2d_8"/><use xlink:href="#DejaVuSans-52" transform="matrix(.1 0 0 -.1 51.635 212.922)" id="text_9"/></g><g id="ytick_3"><use style="stroke:#000;stroke-width:.8" x="64.998" xlink:href="#m56426dffde" y="162.733" id="line2d_9"/><use xlink:href="#DejaVuSans-54" transform="matrix(.1 0 0 -.1 51.635 166.532)" id="text_10"/></g><g id="ytick_4"><use style="stroke:#000;stroke-width:.8" x="64.998" xlink:href="#m56426dffde" y="116.344" id="line2d_10"/><use xlink:href="#DejaVuSans-56" transform="matrix(.1 0 0 -.1 51.635 120.143)" id="text_11"/></g><g id="ytick_5"><use style="stroke:#000;stroke-width:.8" x="64.998" xlink:href="#m56426dffde" y="69.954" id="line2d_11"/><g transform="matrix(.1 0 0 -.1 45.273 73.753)" id="text_12"><use xlink:href="#DejaVuSans-49"/><use x="63.623" xlink:href="#DejaVuSans-48"/></g></g><g id="ytick_6"><use style="stroke:#000;stroke-width:.8" x="64.998" xlink:href="#m56426dffde" y="23.564" id="line2d_12"/><g transform="matrix(.1 0 0 -.1 45.273 27.364)" id="text_13"><use xlink:href="#DejaVuSans-49"/><use x="63.623" xlink:href="#DejaVuSans-50"/></g></g><g transform="matrix(0 -.1 -.1 0 39.193 163.735)" id="text_14"><defs><path d="M54.89 33.016V0h-8.984v32.719q0 7.765-3.031 11.61-3.031 3.858-9.078 3.858-7.281 0-11.484-4.64-4.204-4.625-4.204-12.64V0H9.08v75.984h9.03V46.188q3.235 4.937 7.594 7.374Q30.078 56 35.797 56q9.422 0 14.25-5.828 4.844-5.828 4.844-17.156z" id="DejaVuSans-104"/><path d="M34.281 27.484q-10.89 0-15.093-2.484-4.204-2.484-4.204-8.5 0-4.781 3.157-7.594 3.156-2.797 8.562-2.797 7.485 0 12 5.297 4.516 5.297 4.516 14.078v2zm17.922 3.72V0H43.22v8.297Q40.14 3.328 35.547.953q-4.594-2.375-11.234-2.375-8.391 0-13.36 4.719Q6 8.016 6 15.922q0 9.219 6.172 13.906 6.187 4.688 18.437 4.688h12.61v.89q0 6.203-4.078 9.594-4.078 3.39-11.453 3.39-4.688 0-9.141-1.124-4.438-1.125-8.531-3.375v8.312q4.921 1.906 9.562 2.844 4.64.953 9.031.953 11.875 0 17.735-6.156 5.86-6.14 5.86-18.64z" id="DejaVuSans-97"/><path d="M18.11 8.203v-29H9.077v75.484h9.031v-8.296q2.844 4.875 7.157 7.234Q29.594 56 35.594 56q9.968 0 16.187-7.906 6.235-7.907 6.235-20.797T51.78 6.484q-6.218-7.906-16.187-7.906-6 0-10.328 2.375-4.313 2.375-7.157 7.25zm30.578 19.094q0 9.906-4.079 15.547-4.078 5.64-11.203 5.64-7.14 0-11.218-5.64-4.079-5.64-4.079-15.547 0-9.906 4.078-15.547 4.079-5.64 11.22-5.64 7.124 0 11.202 5.64t4.078 15.547z" id="DejaVuSans-112"/><path d="M32.172-5.078q-3.797-9.766-7.422-12.735-3.61-2.984-9.656-2.984H7.906v7.516h5.282q3.703 0 5.75 1.765Q21-9.766 23.483-3.219l1.61 4.094-22.11 53.813H12.5l17.094-42.766 17.093 42.766h9.516z" id="DejaVuSans-121"/></defs><use xlink:href="#DejaVuSans-104"/><use x="63.379" xlink:href="#DejaVuSans-97"/><use x="124.658" xlink:href="#DejaVuSans-112"/><use x="188.135" xlink:href="#DejaVuSans-112"/><use x="251.611" xlink:href="#DejaVuSans-121"/></g></g><path clip-path="url(#p2ec7b72c7b)" d="m85.191 22.322 403.866 225.273" style="fill:none;stroke:#00f;stroke-dasharray:4,6.6;stroke-dashoffset:0;stroke-width:4" id="line2d_13"/><path clip-path="url(#p2ec7b72c7b)" d="m85.191 95.054 403.866 142.383" style="fill:none;stroke:orange;stroke-linecap:square;stroke-width:4" id="line2d_14"/><path d="M64.998 286.655V9.735" style="fill:none;stroke:#000;stroke-linecap:square;stroke-linejoin:miter;stroke-width:.8" id="patch_3"/><path d="M64.998 286.655H509.25" style="fill:none;stroke:#000;stroke-linecap:square;stroke-linejoin:miter;stroke-width:.8" id="patch_4"/><g id="legend_1"><path d="M381.073 76.447H502.25q2 0 2-2V16.734q0-2-2-2H381.073q-2 0-2 2v57.713q0 2 2 2z" style="fill:#fff;opacity:.8;stroke:#ccc;stroke-linejoin:miter" id="patch_5"/><path d="M383.073 22.833h20" style="fill:none;stroke:#00f;stroke-dasharray:4,6.6;stroke-dashoffset:0;stroke-width:4" id="line2d_15"/><g transform="matrix(.1 0 0 -.1 411.073 26.333)" id="text_15"><defs><path d="M19.672 64.797V8.109h11.922q15.093 0 22.093 6.829 7 6.843 7 21.593 0 14.64-7 21.453-7 6.813-22.093 6.813zm-9.86 8.11h20.266q21.188 0 31.094-8.813 9.922-8.813 9.922-27.563 0-18.86-9.969-27.703Q51.172 0 30.078 0H9.813z" id="DejaVuSans-68"/><path d="M30.61 48.39q-7.22 0-11.422-5.64-4.204-5.64-4.204-15.453 0-9.813 4.172-15.453 4.188-5.64 11.453-5.64 7.188 0 11.375 5.655 4.203 5.672 4.203 15.438 0 9.719-4.203 15.406-4.187 5.688-11.375 5.688zm0 7.61q11.718 0 18.406-7.625 6.703-7.61 6.703-21.078 0-13.422-6.703-21.078-6.688-7.64-18.407-7.64-11.765 0-18.437 7.64-6.656 7.656-6.656 21.078 0 13.469 6.656 21.078Q18.844 56 30.609 56z" id="DejaVuSans-111"/><path d="M54.89 33.016V0h-8.984v32.719q0 7.765-3.031 11.61-3.031 3.858-9.078 3.858-7.281 0-11.484-4.64-4.204-4.625-4.204-12.64V0H9.08v54.688h9.03v-8.5q3.235 4.937 7.594 7.374Q30.078 56 35.797 56q9.422 0 14.25-5.828 4.844-5.828 4.844-17.156z" id="DejaVuSans-110"/><path d="m54.89 54.688-19.78-26.61L55.905 0H45.313L29.39 21.484 13.484 0H2.875l21.25 28.61L4.687 54.687h10.594l14.5-19.485 14.5 19.484z" id="DejaVuSans-120"/><path d="M48.781 52.594v-8.407q-3.812 2.11-7.64 3.157-3.828 1.047-7.735 1.047-8.75 0-13.593-5.547-4.829-5.532-4.829-15.547 0-10.016 4.829-15.563 4.843-5.53 13.593-5.53 3.907 0 7.735 1.046 3.828 1.047 7.64 3.156V2.094Q45.016.344 40.984-.531q-4.015-.89-8.562-.89-12.36 0-19.64 7.765-7.266 7.765-7.266 20.953 0 13.375 7.343 21.031Q20.22 56 33.016 56q4.14 0 8.093-.86 3.953-.843 7.672-2.546z" id="DejaVuSans-99"/><path d="M9.422 54.688h8.984V0H9.422zm0 21.296h8.984v-11.39H9.422z" id="DejaVuSans-105"/></defs><use xlink:href="#DejaVuSans-68"/><use x="77.002" xlink:href="#DejaVuSans-111"/><use x="138.184" xlink:href="#DejaVuSans-101"/><use x="199.707" xlink:href="#DejaVuSans-115"/><use x="251.807" xlink:href="#DejaVuSans-32"/><use x="283.594" xlink:href="#DejaVuSans-110"/><use x="346.973" xlink:href="#DejaVuSans-111"/><use x="408.154" xlink:href="#DejaVuSans-116"/><use x="447.363" xlink:href="#DejaVuSans-32"/><use x="479.15" xlink:href="#DejaVuSans-101"/><use x="538.924" xlink:href="#DejaVuSans-120"/><use x="594.979" xlink:href="#DejaVuSans-101"/><use x="656.502" xlink:href="#DejaVuSans-114"/><use x="695.365" xlink:href="#DejaVuSans-99"/><use x="750.346" xlink:href="#DejaVuSans-105"/><use x="778.129" xlink:href="#DejaVuSans-115"/><use x="830.229" xlink:href="#DejaVuSans-101"/></g><path d="M383.073 37.51h20" style="fill:none;stroke:orange;stroke-linecap:square;stroke-width:4" id="line2d_17"/><g transform="matrix(.1 0 0 -.1 411.073 41.01)" id="text_16"><defs><path d="M9.813 72.906h46.093v-8.312H19.672V43.016H54.39v-8.297H19.67V8.297h37.11V0H9.813z" id="DejaVuSans-69"/></defs><use xlink:href="#DejaVuSans-69"/><use x="63.184" xlink:href="#DejaVuSans-120"/><use x="119.238" xlink:href="#DejaVuSans-101"/><use x="180.762" xlink:href="#DejaVuSans-114"/><use x="219.625" xlink:href="#DejaVuSans-99"/><use x="274.605" xlink:href="#DejaVuSans-105"/><use x="302.389" xlink:href="#DejaVuSans-115"/><use x="354.488" xlink:href="#DejaVuSans-101"/><use x="416.012" xlink:href="#DejaVuSans-115"/></g><use style="fill:#1f77b4;fill-opacity:.8;stroke:#1f77b4;stroke-opacity:.8" x="393.073" xlink:href="#m15669dd18d" y="53.064" id="PathCollection_3"/><g transform="matrix(.1 0 0 -.1 411.073 55.689)" id="text_17"><defs><path d="M10.594 45.406h62.593v-8.203H10.594zm0-19.922h62.593v-8.297H10.594z" id="DejaVuSans-61"/></defs><use xlink:href="#DejaVuSans-101"/><use x="59.773" xlink:href="#DejaVuSans-120"/><use x="115.828" xlink:href="#DejaVuSans-101"/><use x="177.352" xlink:href="#DejaVuSans-114"/><use x="216.215" xlink:href="#DejaVuSans-99"/><use x="271.195" xlink:href="#DejaVuSans-105"/><use x="298.979" xlink:href="#DejaVuSans-115"/><use x="351.078" xlink:href="#DejaVuSans-101"/><use x="412.602" xlink:href="#DejaVuSans-32"/><use x="444.389" xlink:href="#DejaVuSans-61"/><use x="528.178" xlink:href="#DejaVuSans-32"/><use x="559.965" xlink:href="#DejaVuSans-48"/></g><use style="fill:#ff7f0e;fill-opacity:.8;stroke:#ff7f0e;stroke-opacity:.8;stroke-width:1.5" x="393.073" xlink:href="#m51b2aa0ee0" y="67.742" id="PathCollection_4"/><g transform="matrix(.1 0 0 -.1 411.073 70.367)" id="text_18"><use xlink:href="#DejaVuSans-101"/><use x="59.773" xlink:href="#DejaVuSans-120"/><use x="115.828" xlink:href="#DejaVuSans-101"/><use x="177.352" xlink:href="#DejaVuSans-114"/><use x="216.215" xlink:href="#DejaVuSans-99"/><use x="271.195" xlink:href="#DejaVuSans-105"/><use x="298.979" xlink:href="#DejaVuSans-115"/><use x="351.078" xlink:href="#DejaVuSans-101"/><use x="412.602" xlink:href="#DejaVuSans-32"/><use x="444.389" xlink:href="#DejaVuSans-61"/><use x="528.178" xlink:href="#DejaVuSans-32"/><use x="559.965" xlink:href="#DejaVuSans-49"/></g></g></g></g><defs><clipPath id="p2ec7b72c7b"><path d="M64.998 9.734H509.25v276.921H64.998z"/></clipPath></defs></svg>
